<svg width="14" height="11" viewBox="0 0 14 11" fill="none" xmlns="http://www.w3.org/2000/svg">
<path d="M13.791 5.24478L9.63034 1.08416C9.37649 0.830306 8.9648 0.830306 8.71095 1.08416C8.45705 1.33806 8.45705 1.74965 8.71095 2.00355L11.7618 5.05438H0.650098C0.291088 5.05438 0 5.34547 0 5.70448C0 6.06344 0.291088 6.35458 0.650098 6.35458H11.7618L8.71105 9.40541C8.45715 9.65931 8.45715 10.0709 8.71105 10.3248C8.83795 10.4517 9.00438 10.5152 9.17075 10.5152C9.33712 10.5152 9.5035 10.4517 9.63045 10.3248L13.791 6.16418C14.0449 5.91028 14.0449 5.49869 13.791 5.24478Z" fill="black" fill-opacity="0.6"/>
</svg>
