<svg width="20" height="20" viewBox="0 0 20 20" fill="none" xmlns="http://www.w3.org/2000/svg">
<circle cx="10" cy="10" r="10" fill="black"/>
<g clip-path="url(#clip0_24_2295)">
<path d="M15.6249 7.17947H13.0824C13.2648 7.05492 13.4215 6.93117 13.5308 6.82028C14.1784 6.16858 14.1784 5.10787 13.5308 4.45617C12.9016 3.82295 11.8039 3.82215 11.1739 4.45617C10.8259 4.80572 9.90102 6.22885 10.0288 7.17947H9.97093C10.0979 6.22885 9.17379 4.80572 8.82584 4.45617C8.19584 3.82215 7.09816 3.82295 6.46897 4.45617C5.82129 5.10787 5.82129 6.16858 6.46816 6.82028C6.57825 6.93117 6.73495 7.05492 6.91736 7.17947H4.37486C3.93209 7.17947 3.57129 7.54028 3.57129 7.98304V9.99197C3.57129 10.2138 3.75129 10.3938 3.97307 10.3938H4.37486V15.2152C4.37486 15.658 4.73566 16.0188 5.17843 16.0188H14.8213C15.2641 16.0188 15.6249 15.658 15.6249 15.2152V10.3938H16.0266C16.2484 10.3938 16.4284 10.2138 16.4284 9.99197V7.98304C16.4284 7.54028 16.0676 7.17947 15.6249 7.17947ZM7.0387 5.02269C7.20182 4.85876 7.41799 4.76876 7.64781 4.76876C7.87682 4.76876 8.09299 4.85876 8.25611 5.02269C8.79772 5.56751 9.33611 6.95929 9.14888 7.15296C9.14888 7.15296 9.11513 7.17947 9.00022 7.17947C8.44495 7.17947 7.38504 6.60251 7.0387 6.25376C6.702 5.91465 6.702 5.36179 7.0387 5.02269ZM9.59807 15.2152H5.17843V10.3938H9.59807V15.2152ZM9.59807 9.59019H4.37486V7.98304H9.00022H9.59807V9.59019ZM11.7436 5.02269C12.0699 4.69563 12.6356 4.69644 12.961 5.02269C13.2977 5.36179 13.2977 5.91465 12.961 6.25376C12.6147 6.60251 11.5548 7.17947 10.9995 7.17947C10.8846 7.17947 10.8508 7.15376 10.85 7.15296C10.6636 6.95929 11.202 5.56751 11.7436 5.02269ZM14.8213 15.2152H10.4016V10.3938H14.8213V15.2152ZM15.6249 9.59019H10.4016V7.98304H10.9995H15.6249V9.59019Z" fill="white"/>
</g>
<defs>
<clipPath id="clip0_24_2295">
<rect width="12.8571" height="12.8571" fill="white" transform="translate(3.57129 3.57129)"/>
</clipPath>
</defs>
</svg>
