<svg width="52" height="66" viewBox="0 0 52 66" fill="none" xmlns="http://www.w3.org/2000/svg">
<path d="M13.8182 17H2.49023V0.992014H13.8182V3.99201H5.89823V7.37601H13.6502V10.376H5.89823V14H13.8182V17ZM26.4184 17H23.3704V15.8C22.5384 16.792 21.3144 17.288 19.6984 17.288C18.6584 17.288 17.7224 16.952 16.8904 16.28C16.0744 15.592 15.6664 14.648 15.6664 13.448C15.6664 12.2 16.0664 11.264 16.8664 10.64C17.6824 10.016 18.6264 9.70401 19.6984 9.70401C21.3464 9.70401 22.5704 10.176 23.3704 11.12V9.56002C23.3704 8.96802 23.1384 8.49602 22.6744 8.14401C22.2104 7.79201 21.5944 7.61601 20.8264 7.61601C19.5624 7.61601 18.4344 8.07201 17.4424 8.98401L16.2904 6.94401C17.6664 5.72801 19.3544 5.12001 21.3544 5.12001C22.8424 5.12001 24.0584 5.46401 25.0024 6.15201C25.9464 6.84001 26.4184 7.96002 26.4184 9.51202V17ZM20.9224 15.224C22.0584 15.224 22.8744 14.888 23.3704 14.216V12.776C22.8744 12.104 22.0584 11.768 20.9224 11.768C20.2984 11.768 19.7784 11.928 19.3624 12.248C18.9464 12.552 18.7384 12.976 18.7384 13.52C18.7384 14.048 18.9464 14.464 19.3624 14.768C19.7784 15.072 20.2984 15.224 20.9224 15.224ZM33.6177 17.288C32.6097 17.288 31.6417 17.128 30.7137 16.808C29.8017 16.488 29.0417 16.048 28.4337 15.488L29.7537 13.352C30.2017 13.768 30.8097 14.136 31.5777 14.456C32.3457 14.776 33.0737 14.936 33.7617 14.936C34.4017 14.936 34.8817 14.824 35.2017 14.6C35.5377 14.376 35.7057 14.072 35.7057 13.688C35.7057 13.4 35.5297 13.168 35.1777 12.992C34.8417 12.8 34.4177 12.664 33.9057 12.584C33.4097 12.504 32.8577 12.384 32.2497 12.224C31.6577 12.064 31.1057 11.872 30.5937 11.648C30.0977 11.424 29.6737 11.072 29.3217 10.592C28.9857 10.096 28.8177 9.48801 28.8177 8.76801C28.8177 7.74401 29.2417 6.88001 30.0897 6.17601C30.9377 5.47201 32.0977 5.12001 33.5697 5.12001C35.3617 5.12001 36.9217 5.64801 38.2497 6.70401L37.0257 8.79202C36.6577 8.40801 36.1617 8.08801 35.5377 7.83201C34.9297 7.57601 34.2817 7.44801 33.5937 7.44801C33.0497 7.44801 32.6097 7.56001 32.2737 7.78402C31.9377 7.99201 31.7697 8.26401 31.7697 8.60001C31.7697 8.85601 31.9377 9.07201 32.2737 9.24801C32.6097 9.40801 33.0337 9.52801 33.5457 9.60801C34.0577 9.68801 34.6097 9.81602 35.2017 9.99201C35.7937 10.152 36.3457 10.352 36.8577 10.592C37.3697 10.816 37.7937 11.184 38.1297 11.696C38.4657 12.208 38.6337 12.832 38.6337 13.568C38.6337 14.656 38.1857 15.552 37.2897 16.256C36.4097 16.944 35.1857 17.288 33.6177 17.288ZM40.4712 21.536L40.9272 18.8C41.2152 18.928 41.5352 18.992 41.8872 18.992C42.7032 18.992 43.2392 18.712 43.4952 18.152L43.9272 17.168L39.2232 5.40802H42.4872L45.5112 13.472L48.5352 5.40802H51.8232L46.3752 18.896C45.9752 19.92 45.4152 20.632 44.6952 21.032C43.9752 21.448 43.0712 21.672 41.9832 21.704C41.4232 21.704 40.9192 21.648 40.4712 21.536ZM25.5747 41H22.5267V39.8C21.6947 40.792 20.4707 41.288 18.8547 41.288C17.8147 41.288 16.8787 40.952 16.0467 40.28C15.2307 39.592 14.8227 38.648 14.8227 37.448C14.8227 36.2 15.2227 35.264 16.0227 34.64C16.8387 34.016 17.7827 33.704 18.8547 33.704C20.5027 33.704 21.7267 34.176 22.5267 35.12V33.56C22.5267 32.968 22.2947 32.496 21.8307 32.144C21.3667 31.792 20.7507 31.616 19.9827 31.616C18.7187 31.616 17.5907 32.072 16.5987 32.984L15.4467 30.944C16.8227 29.728 18.5107 29.12 20.5107 29.12C21.9987 29.12 23.2147 29.464 24.1587 30.152C25.1027 30.84 25.5747 31.96 25.5747 33.512V41ZM20.0787 39.224C21.2147 39.224 22.0307 38.888 22.5267 38.216V36.776C22.0307 36.104 21.2147 35.768 20.0787 35.768C19.4547 35.768 18.9347 35.928 18.5187 36.248C18.1027 36.552 17.8947 36.976 17.8947 37.52C17.8947 38.048 18.1027 38.464 18.5187 38.768C18.9347 39.072 19.4547 39.224 20.0787 39.224ZM32.7739 41.288C31.7659 41.288 30.7979 41.128 29.8699 40.808C28.9579 40.488 28.1979 40.048 27.5899 39.488L28.9099 37.352C29.3579 37.768 29.9659 38.136 30.7339 38.456C31.5019 38.776 32.2299 38.936 32.9179 38.936C33.5579 38.936 34.0379 38.824 34.3579 38.6C34.6939 38.376 34.8619 38.072 34.8619 37.688C34.8619 37.4 34.6859 37.168 34.3339 36.992C33.9979 36.8 33.5739 36.664 33.0619 36.584C32.5659 36.504 32.0139 36.384 31.4059 36.224C30.8139 36.064 30.2619 35.872 29.7499 35.648C29.2539 35.424 28.8299 35.072 28.4779 34.592C28.1419 34.096 27.9739 33.488 27.9739 32.768C27.9739 31.744 28.3979 30.88 29.2459 30.176C30.0939 29.472 31.2539 29.12 32.7259 29.12C34.5179 29.12 36.0779 29.648 37.4059 30.704L36.1819 32.792C35.8139 32.408 35.3179 32.088 34.6939 31.832C34.0859 31.576 33.4379 31.448 32.7499 31.448C32.2059 31.448 31.7659 31.56 31.4299 31.784C31.0939 31.992 30.9259 32.264 30.9259 32.6C30.9259 32.856 31.0939 33.072 31.4299 33.248C31.7659 33.408 32.1899 33.528 32.7019 33.608C33.2139 33.688 33.7659 33.816 34.3579 33.992C34.9499 34.152 35.5019 34.352 36.0139 34.592C36.5259 34.816 36.9499 35.184 37.2859 35.696C37.6219 36.208 37.7899 36.832 37.7899 37.568C37.7899 38.656 37.3419 39.552 36.4459 40.256C35.5659 40.944 34.3419 41.288 32.7739 41.288ZM8.20185 65H4.79385V53.384L2.12985 56.096L0.185852 54.056L5.22585 48.992H8.20185V65ZM16.269 60.488H10.509V57.896H16.269V60.488ZM30.1604 65H18.1124V62.336C21.5364 59.792 23.8004 57.984 24.9044 56.912C26.0244 55.824 26.5844 54.808 26.5844 53.864C26.5844 53.208 26.3284 52.696 25.8164 52.328C25.3044 51.96 24.6964 51.776 23.9924 51.776C22.3124 51.776 20.8804 52.392 19.6964 53.624L17.7524 51.368C18.5044 50.504 19.4244 49.856 20.5124 49.424C21.6164 48.976 22.7524 48.752 23.9204 48.752C25.6804 48.752 27.1364 49.216 28.2884 50.144C29.4564 51.072 30.0404 52.312 30.0404 53.864C30.0404 55.176 29.5204 56.464 28.4804 57.728C27.4564 58.976 25.8404 60.4 23.6324 62H30.1604V65ZM37.855 60.488H32.095V57.896H37.855V60.488ZM45.3623 65.288C43.9543 65.288 42.7063 65.056 41.6183 64.592C40.5303 64.112 39.6743 63.488 39.0503 62.72L40.8263 60.44C41.3703 61 42.0423 61.448 42.8423 61.784C43.6423 62.104 44.4423 62.264 45.2423 62.264C46.2023 62.264 46.9463 62.08 47.4743 61.712C48.0023 61.328 48.2663 60.832 48.2663 60.224C48.2663 59.584 48.0103 59.12 47.4983 58.832C46.9863 58.528 46.1703 58.376 45.0503 58.376C44.0423 58.376 43.3783 58.392 43.0583 58.424V55.352C43.2503 55.368 43.9143 55.376 45.0503 55.376C47.0183 55.376 48.0023 54.808 48.0023 53.672C48.0023 53.064 47.7223 52.6 47.1623 52.28C46.6183 51.944 45.9063 51.776 45.0263 51.776C43.4743 51.776 42.1223 52.328 40.9703 53.432L39.2663 51.296C40.7703 49.6 42.8103 48.752 45.3863 48.752C47.2583 48.752 48.7303 49.144 49.8023 49.928C50.8903 50.712 51.4343 51.768 51.4343 53.096C51.4343 54.056 51.0903 54.864 50.4023 55.52C49.7143 56.16 48.8903 56.568 47.9303 56.744C48.8743 56.84 49.7303 57.232 50.4983 57.92C51.2823 58.592 51.6743 59.48 51.6743 60.584C51.6743 61.976 51.0983 63.112 49.9463 63.992C48.7943 64.856 47.2663 65.288 45.3623 65.288Z" fill="black"/>
</svg>
