<svg width="20" height="20" viewBox="0 0 20 20" fill="none" xmlns="http://www.w3.org/2000/svg">
<circle cx="10" cy="10" r="10" fill="black"/>
<g clip-path="url(#clip0_24_2279)">
<path d="M12.9762 15H6.42871C6.55781 12.8418 7.93483 11.9878 9.5535 10.9252C10.6756 10.187 12.0262 9.34955 12.0262 7.83019C12.0262 6.5955 11.1457 5.78451 9.82494 5.78451C8.10696 5.78451 7.55086 7.03575 7.55086 8.51208H6.67035V8.38299C6.67035 6.27772 7.87856 5 9.86466 5C11.725 5 12.9332 6.1089 12.9332 7.81364C12.9332 9.78649 11.1722 10.8524 9.70908 11.7891C8.75907 12.4015 7.63692 13.0669 7.435 14.2188C7.53431 14.2188 7.62037 14.2056 7.67664 14.2056H12.9762V15Z" fill="white"/>
</g>
<defs>
<clipPath id="clip0_24_2279">
<rect width="6.5475" height="10" fill="white" transform="translate(6.42871 5)"/>
</clipPath>
</defs>
</svg>
