<svg width="20" height="20" viewBox="0 0 20 20" fill="none" xmlns="http://www.w3.org/2000/svg">
<circle cx="10" cy="10" r="10" fill="black"/>
<g clip-path="url(#clip0_24_2283)">
<path d="M9.82255 5C11.5762 5 12.7431 6.00162 12.7431 7.48947C12.7431 8.54619 12.1175 9.35332 11.1029 9.60292C12.3833 9.86872 13.0932 10.7147 13.0932 11.9822C13.0932 13.778 11.7448 15 9.74151 15C7.72207 15 6.42871 13.7909 6.42871 11.8979V11.6775H7.27798V11.7196C7.27798 13.2917 8.20829 14.2382 9.76745 14.2382C11.1872 14.2382 12.2018 13.3468 12.2018 12.0827C12.2018 10.5105 10.9765 10.0373 9.64103 10.0373C9.4595 10.0373 9.37523 10.0373 9.16777 10.0502V9.31118H9.53082C10.0721 9.31118 10.3379 9.28201 10.6978 9.15883C11.4336 8.88006 11.8517 8.2966 11.8517 7.5316C11.8517 6.4457 11.0446 5.73582 9.78041 5.73582C8.36064 5.73582 7.54054 6.61102 7.48544 8.17018H6.66534C6.69451 6.16694 7.86145 5 9.82255 5Z" fill="white"/>
</g>
<defs>
<clipPath id="clip0_24_2283">
<rect width="6.66126" height="10" fill="white" transform="translate(6.42871 5)"/>
</clipPath>
</defs>
</svg>
